<svg width="156" height="52" viewBox="0 0 156 52" fill="none" xmlns="http://www.w3.org/2000/svg">
<g clip-path="url(#clip0_4077_4735)">
<path d="M143.577 0.000169H12.4299C11.9518 0.000169 11.4795 0.000169 11.0027 0.002769C10.6036 0.005369 10.2077 0.012922 9.80475 0.019279C8.92936 0.0295513 8.05604 0.106348 7.19236 0.249002C6.3299 0.394761 5.49446 0.669559 4.71428 1.0641C3.93507 1.46198 3.22307 1.97899 2.60413 2.59636C1.98194 3.212 1.4633 3.92359 1.06815 4.70378C0.671901 5.48241 0.397144 6.31679 0.253364 7.17809C0.108217 8.03831 0.0301122 8.90845 0.0197503 9.78069C0.00765242 10.1793 0.00637485 10.5792 0 10.9778V41.0263C0.00637485 41.43 0.00765242 41.821 0.0197503 42.2248C0.0301154 43.097 0.10822 43.9671 0.253364 44.8273C0.396747 45.6891 0.67152 46.524 1.06815 47.3029C1.46312 48.0805 1.98184 48.7893 2.60413 49.4015C3.22072 50.0216 3.93318 50.5389 4.71428 50.9338C5.49445 51.3294 6.3298 51.6058 7.19236 51.7538C8.05619 51.8953 8.92942 51.9722 9.80475 51.9837C10.2077 51.9925 10.6036 51.9976 11.0027 51.9976C11.4795 52.0002 11.9519 52.0002 12.4299 52.0002H143.577C144.046 52.0002 144.522 52.0002 144.99 51.9976C145.388 51.9976 145.795 51.9925 146.192 51.9837C147.066 51.9728 147.937 51.8959 148.799 51.7538C149.665 51.6048 150.503 51.3284 151.287 50.9338C152.067 50.5387 152.779 50.0214 153.395 49.4015C154.016 48.7869 154.536 48.0787 154.936 47.3029C155.329 46.5234 155.602 45.6886 155.743 44.8273C155.888 43.967 155.969 43.0971 155.985 42.2248C155.99 41.821 155.99 41.43 155.99 41.0263C156 40.5541 156 40.0844 156 39.6044V12.3971C156 11.9211 156 11.4488 155.99 10.9778C155.99 10.5792 155.99 10.1793 155.985 9.78064C155.969 8.90832 155.888 8.03837 155.743 7.17804C155.601 6.31723 155.329 5.48292 154.936 4.70372C154.131 3.13992 152.855 1.867 151.287 1.06398C150.503 0.670407 149.665 0.395682 148.799 0.248885C147.938 0.105603 147.066 0.0287791 146.192 0.019097C145.795 0.012753 145.388 0.005135 144.99 0.0026C144.522 0 144.046 0.000169 143.577 0.000169Z" fill="#A6A6A6"/>
<path d="M11.0091 50.8625C10.6119 50.8625 10.2243 50.8574 9.83024 50.8486C9.01388 50.838 8.19941 50.7671 7.39354 50.6366C6.6421 50.5075 5.91417 50.2674 5.23373 49.9243C4.55954 49.584 3.94462 49.1378 3.41253 48.6027C2.87275 48.074 2.42335 47.4607 2.08215 46.7873C1.73719 46.1094 1.49846 45.3829 1.37427 44.6329C1.24015 43.827 1.16759 43.0122 1.15721 42.1954C1.14894 41.9212 1.13812 41.0084 1.13812 41.0084V10.9776C1.13812 10.9776 1.14965 10.0788 1.15727 9.81474C1.16721 8.99922 1.23935 8.18565 1.37307 7.38105C1.49748 6.62902 1.7364 5.90037 2.08155 5.22032C2.42149 4.54732 2.8684 3.93362 3.40493 3.40298C3.94087 2.8673 4.55775 2.41878 5.23309 2.07377C5.91196 1.73172 6.63853 1.49335 7.38844 1.36665C8.19696 1.23478 9.01425 1.16349 9.83345 1.15337L11.0098 1.1375H144.984L146.174 1.15401C146.986 1.16363 147.796 1.23428 148.597 1.36537C149.354 1.49366 150.089 1.7337 150.775 2.07758C152.128 2.77288 153.229 3.87291 153.924 5.22349C154.263 5.89885 154.498 6.62156 154.621 7.36708C154.757 8.17829 154.832 8.99826 154.848 9.82046C154.852 10.1886 154.852 10.5841 154.852 10.9776C154.862 11.4651 154.862 11.9291 154.862 12.397V39.6042C154.862 40.0765 154.862 40.5374 154.852 41.002C154.852 41.4248 154.852 41.812 154.847 42.2106C154.831 43.0181 154.757 43.8235 154.624 44.6202C154.502 45.3755 154.265 46.1078 153.92 46.7912C153.576 47.4573 153.129 48.0652 152.596 48.5926C152.063 49.1305 151.447 49.5793 150.771 49.9218C150.087 50.2676 149.354 50.5086 148.597 50.6366C147.791 50.7678 146.977 50.8387 146.16 50.8486C145.778 50.8574 145.379 50.8625 144.99 50.8625L143.577 50.8651L11.0091 50.8625Z" fill="black"/>
<path d="M32.29 26.3909C32.304 25.3058 32.593 24.2419 33.1301 23.2982C33.6673 22.3545 34.4351 21.5615 35.3621 20.9932C34.7732 20.1545 33.9963 19.4643 33.0931 18.9774C32.1899 18.4904 31.1853 18.2202 30.159 18.1882C27.9699 17.9591 25.8476 19.4945 24.7321 19.4945C23.5949 19.4945 21.8774 18.211 20.0278 18.2489C18.8315 18.2875 17.6656 18.6344 16.6437 19.2559C15.6218 19.8773 14.7787 20.7522 14.1967 21.7952C11.6755 26.1481 13.5561 32.5455 15.9712 36.0641C17.1796 37.787 18.5918 39.7116 20.4397 39.6434C22.2479 39.5686 22.9233 38.4935 25.106 38.4935C27.2684 38.4935 27.902 39.6434 29.7874 39.6C31.7277 39.5686 32.9502 37.8693 34.1161 36.1301C34.9843 34.9024 35.6524 33.5456 36.0956 32.1098C34.9683 31.6344 34.0064 30.8385 33.3296 29.8216C32.6529 28.8046 32.2913 27.6114 32.29 26.3909Z" fill="white"/>
<path d="M28.7289 15.8742C29.7868 14.6077 30.308 12.9799 30.1818 11.3363C28.5655 11.5056 27.0725 12.276 26.0003 13.4938C25.476 14.0888 25.0745 14.781 24.8187 15.5308C24.5628 16.2806 24.4577 17.0733 24.5093 17.8636C25.3177 17.872 26.1175 17.6972 26.8484 17.3526C27.5793 17.008 28.2223 16.5025 28.7289 15.8742Z" fill="white"/>
<path d="M55.1473 35.2815H48.9767L47.4948 39.6449H44.8811L50.7259 23.5015H53.4414L59.2862 39.6449H56.6279L55.1473 35.2815ZM49.6157 33.2681H54.507L52.0958 26.1866H52.0283L49.6157 33.2681Z" fill="white"/>
<path d="M71.9089 33.7607C71.9089 37.4182 69.9458 39.7681 66.9833 39.7681C66.2328 39.8072 65.4865 39.6348 64.8297 39.2707C64.1729 38.9065 63.6323 38.3652 63.2697 37.7089H63.2136V43.5386H60.7909V27.8751H63.136V29.8327H63.1805C63.5598 29.1795 64.1096 28.6411 64.7714 28.2747C65.4332 27.9083 66.1822 27.7276 66.9387 27.752C69.9342 27.752 71.9089 30.1133 71.9089 33.7607ZM69.4187 33.7607C69.4187 31.3778 68.1838 29.8111 66.2996 29.8111C64.4485 29.8111 63.2034 31.4108 63.2034 33.7607C63.2034 36.1321 64.4485 37.7203 66.2996 37.7203C68.1838 37.7203 69.4187 36.1652 69.4187 33.7607Z" fill="white"/>
<path d="M84.8996 33.7606C84.8996 37.4182 82.9365 39.7681 79.974 39.7681C79.2235 39.8072 78.4772 39.6348 77.8204 39.2706C77.1637 38.9065 76.623 38.3652 76.2604 37.7089H76.2043V43.5386H73.7816V27.8751H76.1266V29.8327H76.1712C76.5505 29.1795 77.1003 28.6411 77.7621 28.2747C78.4238 27.9083 79.1729 27.7276 79.9294 27.752C82.925 27.752 84.8996 30.1133 84.8996 33.7606ZM82.4094 33.7606C82.4094 31.3777 81.1745 29.8111 79.2903 29.8111C77.4393 29.8111 76.1942 31.4107 76.1942 33.7606C76.1942 36.1321 77.4393 37.7203 79.2903 37.7203C81.1745 37.7203 82.4094 36.1651 82.4094 33.7606Z" fill="white"/>
<path d="M93.4853 35.147C93.6648 36.7479 95.2243 37.799 97.3555 37.799C99.3975 37.799 100.867 36.7478 100.867 35.3043C100.867 34.0513 99.9806 33.301 97.8825 32.7869L95.7845 32.2829C92.8118 31.5668 91.4318 30.1805 91.4318 27.9309C91.4318 25.1455 93.8659 23.2324 97.3224 23.2324C100.743 23.2324 103.088 25.1455 103.167 27.9309H100.722C100.575 26.3199 99.2396 25.3474 97.288 25.3474C95.3363 25.3474 94.0009 26.3313 94.0009 27.7633C94.0009 28.9046 94.8538 29.5762 96.9404 30.0903L98.724 30.5271C102.046 31.3104 103.426 32.6409 103.426 35.0021C103.426 38.0224 101.013 39.914 97.1759 39.914C93.5858 39.914 91.1618 38.0668 91.0052 35.1469L93.4853 35.147Z" fill="white"/>
<path d="M108.654 25.0898V27.8751H110.899V29.7883H108.654V36.2769C108.654 37.2849 109.104 37.7546 110.09 37.7546C110.357 37.75 110.623 37.7313 110.887 37.6987V39.6005C110.444 39.6831 109.993 39.7205 109.542 39.7122C107.152 39.7122 106.22 38.8172 106.22 36.5345V29.7883H104.504V27.8751H106.22V25.0898H108.654Z" fill="white"/>
<path d="M112.199 33.7606C112.199 30.0574 114.386 27.7304 117.796 27.7304C121.218 27.7304 123.395 30.0574 123.395 33.7606C123.395 37.474 121.23 39.7909 117.796 39.7909C114.364 39.7909 112.199 37.474 112.199 33.7606ZM120.927 33.7606C120.927 31.2203 119.76 29.721 117.796 29.721C115.833 29.721 114.667 31.2317 114.667 33.7606C114.667 36.3111 115.833 37.799 117.796 37.799C119.76 37.799 120.927 36.3111 120.927 33.7606Z" fill="white"/>
<path d="M125.393 27.8751H127.704V29.8784H127.76C127.916 29.2527 128.284 28.6998 128.801 28.3126C129.318 27.9253 129.953 27.7274 130.599 27.752C130.878 27.751 131.156 27.7812 131.429 27.8421V30.1019C131.076 29.9945 130.709 29.9451 130.34 29.9559C129.988 29.9416 129.637 30.0035 129.312 30.1373C128.986 30.271 128.693 30.4735 128.453 30.7307C128.213 30.988 128.032 31.294 127.922 31.6276C127.812 31.9613 127.776 32.3148 127.816 32.6638V39.6449H125.393L125.393 27.8751Z" fill="white"/>
<path d="M142.599 36.188C142.273 38.3246 140.186 39.7909 137.517 39.7909C134.083 39.7909 131.952 37.4969 131.952 33.8165C131.952 30.1247 134.095 27.7304 137.415 27.7304C140.68 27.7304 142.734 29.9673 142.734 33.5359V34.3637H134.398V34.5097C134.359 34.9428 134.413 35.3792 134.557 35.7898C134.701 36.2004 134.93 36.5758 135.231 36.8911C135.531 37.2064 135.895 37.4544 136.299 37.6186C136.703 37.7828 137.137 37.8595 137.573 37.8435C138.145 37.8969 138.72 37.7647 139.211 37.4664C139.702 37.1682 140.083 36.7198 140.298 36.188L142.599 36.188ZM134.409 32.6752H140.31C140.332 32.2857 140.272 31.896 140.136 31.5304C139.999 31.1648 139.789 30.8313 139.517 30.5508C139.245 30.2703 138.918 30.0489 138.556 29.9004C138.194 29.7519 137.806 29.6796 137.415 29.688C137.02 29.6856 136.629 29.7612 136.264 29.9104C135.899 30.0596 135.567 30.2794 135.288 30.5571C135.008 30.8348 134.787 31.165 134.636 31.5285C134.485 31.8921 134.408 32.2818 134.409 32.6752Z" fill="white"/>
<path d="M49.3121 11.3503C49.82 11.3139 50.3297 11.3905 50.8044 11.5743C51.279 11.7582 51.7069 12.0448 52.057 12.4135C52.4072 12.7822 52.6709 13.2238 52.8291 13.7065C52.9874 14.1892 53.0363 14.7008 52.9722 15.2046C52.9722 17.6827 51.6291 19.1072 49.3121 19.1072H46.5024V11.3503H49.3121ZM47.7105 18.0102H49.1771C49.5401 18.0318 49.9033 17.9725 50.2403 17.8365C50.5774 17.7005 50.8798 17.4913 51.1255 17.224C51.3712 16.9568 51.5541 16.6383 51.6608 16.2917C51.7676 15.9451 51.7954 15.5791 51.7424 15.2204C51.7916 14.8631 51.7609 14.4994 51.6525 14.1553C51.5442 13.8113 51.3608 13.4954 51.1157 13.2303C50.8705 12.9652 50.5696 12.7574 50.2344 12.6219C49.8993 12.4864 49.5382 12.4265 49.1771 12.4465H47.7105V18.0102Z" fill="white"/>
<path d="M54.337 16.1776C54.3001 15.7929 54.3442 15.4048 54.4666 15.0381C54.5889 14.6714 54.7867 14.3343 55.0474 14.0483C55.3081 13.7623 55.6258 13.5338 55.9802 13.3775C56.3346 13.2211 56.7178 13.1404 57.1054 13.1404C57.4929 13.1404 57.8761 13.2211 58.2305 13.3775C58.5849 13.5338 58.9027 13.7623 59.1633 14.0483C59.424 14.3343 59.6218 14.6714 59.7441 15.0381C59.8665 15.4048 59.9106 15.7929 59.8737 16.1776C59.9113 16.5627 59.8677 16.9514 59.7457 17.3187C59.6237 17.686 59.426 18.0237 59.1652 18.3103C58.9045 18.5968 58.5866 18.8258 58.2318 18.9825C57.8771 19.1392 57.4934 19.2201 57.1054 19.2201C56.7174 19.2201 56.3337 19.1392 55.9789 18.9825C55.6241 18.8258 55.3062 18.5968 55.0455 18.3103C54.7848 18.0237 54.587 17.686 54.465 17.3187C54.343 16.9514 54.2994 16.5627 54.337 16.1776ZM58.6821 16.1776C58.6821 14.9088 58.1104 14.1667 57.1073 14.1667C56.1002 14.1667 55.5338 14.9088 55.5338 16.1777C55.5338 17.4567 56.1003 18.193 57.1073 18.193C58.1105 18.193 58.6821 17.4516 58.6821 16.1776Z" fill="white"/>
<path d="M67.2334 19.1071H66.0316L64.8184 14.7957H64.7267L63.5185 19.1071H62.3282L60.7101 13.2533H61.8852L62.9367 17.7201H63.0233L64.2302 13.2533H65.3416L66.5485 17.7201H66.6402L67.6866 13.2533H68.8452L67.2334 19.1071Z" fill="white"/>
<path d="M70.2062 13.2533H71.3214V14.1832H71.408C71.5548 13.8492 71.8025 13.5692 72.1166 13.3823C72.4306 13.1953 72.7952 13.1107 73.1598 13.1403C73.4454 13.1188 73.7322 13.1618 73.9989 13.2659C74.2656 13.37 74.5055 13.5327 74.7006 13.7418C74.8957 13.9509 75.0412 14.2011 75.1262 14.4738C75.2112 14.7466 75.2335 15.0349 75.1916 15.3175V19.107H74.0331V15.6076C74.0331 14.6669 73.6232 14.1991 72.7664 14.1991C72.5724 14.19 72.3789 14.223 72.1989 14.2955C72.0189 14.3681 71.8568 14.4786 71.7237 14.6195C71.5905 14.7604 71.4895 14.9284 71.4276 15.1119C71.3656 15.2953 71.3441 15.49 71.3647 15.6825V19.1071H70.2062L70.2062 13.2533Z" fill="white"/>
<path d="M77.0376 10.9681H78.1961V19.1071H77.0376V10.9681Z" fill="white"/>
<path d="M79.8065 16.1776C79.7696 15.7929 79.8138 15.4048 79.9362 15.038C80.0585 14.6713 80.2564 14.3342 80.5171 14.0482C80.7778 13.7622 81.0955 13.5337 81.4499 13.3774C81.8043 13.221 82.1876 13.1402 82.5752 13.1402C82.9627 13.1402 83.346 13.221 83.7005 13.3774C84.0549 13.5337 84.3726 13.7622 84.6333 14.0482C84.894 14.3342 85.0918 14.6713 85.2142 15.038C85.3366 15.4048 85.3807 15.7929 85.3438 16.1776C85.3814 16.5627 85.3378 16.9514 85.2157 17.3187C85.0937 17.686 84.8959 18.0237 84.6352 18.3103C84.3744 18.5968 84.0564 18.8258 83.7017 18.9824C83.3469 19.1391 82.9632 19.2201 82.5752 19.2201C82.1872 19.2201 81.8035 19.1391 81.4487 18.9824C81.0939 18.8258 80.776 18.5968 80.5152 18.3103C80.2545 18.0237 80.0567 17.686 79.9347 17.3187C79.8126 16.9514 79.769 16.5627 79.8065 16.1776ZM84.1516 16.1776C84.1516 14.9087 83.58 14.1667 82.5768 14.1667C81.5698 14.1667 81.0033 14.9087 81.0033 16.1776C81.0033 17.4567 81.5698 18.193 82.5768 18.193C83.58 18.193 84.1516 17.4516 84.1516 16.1776Z" fill="white"/>
<path d="M86.5635 17.4516C86.5635 16.3979 87.3503 15.7904 88.7468 15.7041L90.3369 15.6127V15.1074C90.3369 14.4892 89.927 14.14 89.1351 14.14C88.4884 14.14 88.0403 14.3768 87.9117 14.7907H86.7901C86.9085 13.7852 87.8569 13.1403 89.1886 13.1403C90.6603 13.1403 91.4904 13.8709 91.4904 15.1074V19.1071H90.3751V18.2844H90.2835C90.0974 18.5795 89.8362 18.8201 89.5264 18.9816C89.2166 19.143 88.8694 19.2196 88.5202 19.2035C88.2738 19.2291 88.0247 19.2029 87.7891 19.1266C87.5534 19.0503 87.3364 18.9256 87.1521 18.7605C86.9677 18.5954 86.8201 18.3937 86.7187 18.1682C86.6173 17.9428 86.5644 17.6987 86.5635 17.4516ZM90.3369 16.9514V16.462L88.9034 16.5534C88.095 16.6074 87.7283 16.8816 87.7283 17.3976C87.7283 17.9245 88.1867 18.2311 88.8169 18.2311C89.0016 18.2497 89.1881 18.2311 89.3654 18.1764C89.5427 18.1217 89.7071 18.032 89.849 17.9126C89.9908 17.7932 90.1071 17.6466 90.1909 17.4814C90.2747 17.3163 90.3244 17.1361 90.3369 16.9514Z" fill="white"/>
<path d="M93.0129 16.1776C93.0129 14.3279 93.9665 13.1561 95.4496 13.1561C95.8165 13.1393 96.1806 13.2269 96.4994 13.4088C96.8182 13.5906 97.0784 13.8592 97.2498 14.1831H97.3364V10.9681H98.4949V19.1071H97.3848V18.1822H97.2931C97.1085 18.5039 96.8391 18.7692 96.5142 18.9492C96.1893 19.1292 95.8211 19.2172 95.4497 19.2035C93.9563 19.2036 93.0129 18.0318 93.0129 16.1776ZM94.2097 16.1776C94.2097 17.4192 94.7966 18.1664 95.7782 18.1664C96.7546 18.1664 97.3581 17.4085 97.3581 16.1827C97.3581 14.9627 96.7482 14.194 95.7782 14.194C94.8029 14.194 94.2097 14.9462 94.2097 16.1776Z" fill="white"/>
<path d="M103.288 16.1776C103.251 15.7929 103.295 15.4048 103.418 15.0381C103.54 14.6714 103.738 14.3343 103.999 14.0483C104.259 13.7623 104.577 13.5338 104.931 13.3775C105.286 13.2211 105.669 13.1404 106.056 13.1404C106.444 13.1404 106.827 13.2211 107.182 13.3775C107.536 13.5338 107.854 13.7623 108.114 14.0483C108.375 14.3343 108.573 14.6714 108.695 15.0381C108.818 15.4048 108.862 15.7929 108.825 16.1776C108.862 16.5627 108.819 16.9514 108.697 17.3187C108.575 17.686 108.377 18.0237 108.116 18.3103C107.856 18.5968 107.538 18.8258 107.183 18.9825C106.828 19.1392 106.444 19.2201 106.056 19.2201C105.668 19.2201 105.285 19.1392 104.93 18.9825C104.575 18.8258 104.257 18.5968 103.997 18.3103C103.736 18.0237 103.538 17.686 103.416 17.3187C103.294 16.9514 103.251 16.5627 103.288 16.1776ZM107.633 16.1776C107.633 14.9088 107.062 14.1667 106.058 14.1667C105.051 14.1667 104.485 14.9088 104.485 16.1777C104.485 17.4567 105.051 18.193 106.058 18.193C107.062 18.193 107.633 17.4516 107.633 16.1776Z" fill="white"/>
<path d="M110.379 13.2533H111.495V14.1832H111.581C111.728 13.8492 111.976 13.5692 112.29 13.3823C112.604 13.1953 112.968 13.1107 113.333 13.1403C113.618 13.1188 113.905 13.1618 114.172 13.2659C114.439 13.37 114.679 13.5327 114.874 13.7418C115.069 13.9509 115.214 14.2011 115.299 14.4738C115.384 14.7466 115.407 15.0349 115.365 15.3175V19.107H114.206V15.6076C114.206 14.6669 113.796 14.1991 112.939 14.1991C112.746 14.19 112.552 14.223 112.372 14.2955C112.192 14.3681 112.03 14.4786 111.897 14.6195C111.764 14.7604 111.663 14.9284 111.601 15.1119C111.539 15.2953 111.517 15.49 111.538 15.6825V19.1071H110.379V13.2533Z" fill="white"/>
<path d="M121.911 11.7958V13.2799H123.183V14.253H121.911V17.2631C121.911 17.8763 122.164 18.1448 122.741 18.1448C122.889 18.1443 123.036 18.1354 123.183 18.1181V19.0804C122.975 19.1175 122.764 19.1373 122.553 19.1394C121.264 19.1394 120.751 18.6875 120.751 17.5589V14.253H119.819V13.2799H120.751V11.7958H121.911Z" fill="white"/>
<path d="M124.765 10.9681H125.914V14.194H126.005C126.159 13.8569 126.414 13.5753 126.734 13.3876C127.054 13.2 127.425 13.1154 127.795 13.1453C128.079 13.1299 128.363 13.1772 128.627 13.2839C128.891 13.3905 129.128 13.5539 129.321 13.7624C129.514 13.9708 129.658 14.2192 129.744 14.4897C129.83 14.7603 129.855 15.0464 129.817 15.3277V19.1071H128.657V15.6127C128.657 14.6777 128.22 14.2041 127.402 14.2041C127.203 14.1878 127.002 14.2151 126.815 14.2841C126.628 14.3531 126.458 14.462 126.317 14.6034C126.176 14.7448 126.068 14.9151 126 15.1025C125.932 15.2898 125.906 15.4898 125.924 15.6882V19.107H124.765L124.765 10.9681Z" fill="white"/>
<path d="M136.572 17.5265C136.415 18.0615 136.074 18.5243 135.609 18.8339C135.144 19.1435 134.584 19.2802 134.028 19.22C133.642 19.2302 133.257 19.1564 132.902 19.0036C132.547 18.8508 132.229 18.6227 131.971 18.3353C131.713 18.0478 131.521 17.7078 131.408 17.3388C131.295 16.9698 131.264 16.5807 131.317 16.1986C131.265 15.8152 131.297 15.4253 131.41 15.0552C131.522 14.6852 131.714 14.3436 131.97 14.0536C132.227 13.7636 132.543 13.5319 132.897 13.3744C133.251 13.2168 133.635 13.137 134.023 13.1403C135.657 13.1403 136.642 14.2531 136.642 16.0913V16.4944H132.497V16.5591C132.479 16.7739 132.506 16.9902 132.576 17.1939C132.647 17.3977 132.759 17.5845 132.907 17.7424C133.054 17.9003 133.232 18.0258 133.431 18.1108C133.63 18.1958 133.844 18.2385 134.06 18.2361C134.337 18.2693 134.618 18.2195 134.867 18.0932C135.115 17.9668 135.321 17.7695 135.457 17.5265L136.572 17.5265ZM132.497 15.64H135.462C135.476 15.4435 135.45 15.2462 135.383 15.0606C135.317 14.8751 135.212 14.7055 135.076 14.5627C134.94 14.4198 134.775 14.307 134.593 14.2314C134.411 14.1557 134.214 14.119 134.017 14.1235C133.816 14.121 133.618 14.1585 133.432 14.2339C133.246 14.3092 133.078 14.4208 132.936 14.5621C132.795 14.7035 132.683 14.8716 132.607 15.0567C132.532 15.2419 132.494 15.4402 132.497 15.64Z" fill="white"/>
</g>
<defs>
<clipPath id="clip0_4077_4735">
<rect width="156" height="52" fill="white"/>
</clipPath>
</defs>
</svg>
